<?xml version="1.0" encoding="UTF-8" standalone="no"?>
<svg
   xmlns:svg="http://www.w3.org/2000/svg"
   xmlns="http://www.w3.org/2000/svg"
   version="1.1"
   x="0px"
   y="0px"
   viewBox="0 0 296.10001 68.1"
   xml:space="preserve"
   width="296.10001"
   height="68.099998">
<style
   type="text/css"
   id="style99">
	.st0{fill:#006330;}
	.st1{fill:#FFFFFF;}
</style>
<g
   id="g123"
   transform="translate(-7.4,-7.2)">
	<path
   class="st0"
   d="m 138.4,71.6 h -0.1 l -0.1,0.1 c -0.8,1.6 -1.6,2.5 -3.3,2.5 -2.2,0 -3.7,-1.9 -3.7,-4.9 0,-2.1 1,-4.4 3.7,-4.4 1.6,0 2.4,0.7 2.9,2.3 v 0.1 h 0.1 l 0.5,-0.1 h 0.1 v -0.1 -0.5 c -0.1,-0.7 -0.1,-1.3 -0.2,-2.1 v -0.1 h -0.1 c -0.1,0 -0.2,0 -0.3,-0.1 -0.6,-0.1 -1.5,-0.4 -2.7,-0.4 -3.7,0 -6.4,2.4 -6.4,5.8 0,2.7 1.9,5.4 6.1,5.4 1.1,0 2.5,-0.3 3.1,-0.5 h 0.1 v -0.1 c 0.3,-0.6 0.6,-2 0.8,-2.7 v -0.1 h -0.1 z"
   id="path101" />
	<path
   class="st0"
   d="m 149.2,74.2 c -2.1,0 -3.4,-2 -3.4,-5 0,-2.6 1.2,-4.4 2.9,-4.4 2.1,0 3.4,1.9 3.4,5.1 -0.1,2.7 -1.1,4.3 -2.9,4.3 m 0,-10.3 c -3.8,0 -5.8,3 -5.8,5.8 0,3.1 2.3,5.4 5.4,5.4 3.2,0 5.6,-2.4 5.6,-5.8 0,-3.1 -2.2,-5.4 -5.2,-5.4"
   id="path103" />
	<path
   class="st0"
   d="m 171.3,72.3 -0.2,-5.6 c 0,-1.7 0,-1.7 1.2,-1.8 h 0.1 v -0.1 -0.5 -0.1 h -0.1 -3 -0.1 v 0.1 l -3.2,7.4 -3.4,-7.4 v -0.1 h -0.1 -3 -0.1 v 0.1 0.5 0.1 h 0.1 c 1.3,0.1 1.4,0.2 1.3,2.3 l -0.2,3.3 c -0.1,1.5 -0.2,2.4 -0.3,3 -0.1,0.5 -0.3,0.7 -1.1,0.7 h -0.1 v 0.1 0.5 0.1 h 0.1 3.8 0.1 V 74.8 74.3 74.2 H 163 c -1.1,-0.1 -1.3,-0.2 -1.3,-0.7 -0.1,-0.5 -0.1,-1.4 -0.1,-2.8 0,0 0.1,-2.6 0.1,-3.7 l 3.3,7.6 v 0.1 h 0.1 0.5 0.1 v -0.1 l 3.4,-7.9 0.1,5.7 c 0,1.7 0,1.7 -1.2,1.8 h -0.1 v 0.1 0.5 0.1 h 0.1 4.5 0.1 v -0.1 -0.5 -0.1 h -0.1 C 171.4,74 171.4,74 171.3,72.3"
   id="path105" />
	<path
   class="st0"
   d="m 183.5,67.2 c 0,2.4 -1.7,2.4 -1.9,2.4 -0.3,0 -0.6,-0.1 -0.8,-0.2 v -4 c 0,-0.4 0,-0.4 0.6,-0.4 1.4,0 2.1,0.8 2.1,2.2 m 1.1,-2.4 C 184,64.3 183,64.1 181.8,64.1 h -4.2 -0.1 v 0.1 0.5 0.1 h 0.1 c 1,0.1 1.2,0.1 1.2,1.8 v 5.6 c 0,1.7 -0.1,1.7 -1.2,1.8 h -0.1 v 0.1 0.5 0.1 h 0.1 4.7 0.1 V 74.6 74.1 74 h -0.1 c -1.4,-0.1 -1.5,-0.1 -1.5,-1.8 v -1.9 l 0.9,0.2 v 0 0 c 0.2,0 0.5,0 0.8,0 1.6,-0.2 3.3,-1.3 3.3,-3.4 0,-1 -0.4,-1.7 -1.2,-2.3"
   id="path107" />
	<path
   class="st0"
   d="m 194.5,70.2 h -2.2 l 1.1,-3 z m 3.1,2.4 -1.2,-3.2 -0.9,-2.4 -1.1,-3 v -0.1 h -0.1 l -0.6,0.2 h -0.1 v 0.1 l -3.3,8.4 c -0.5,1.4 -0.7,1.4 -1.6,1.5 h -0.1 v 0.1 0.5 0.1 h 0.1 3.6 0.1 v -0.1 -0.5 -0.1 h -0.1 -0.4 c -0.3,0 -0.5,-0.1 -0.5,-0.2 -0.1,-0.1 0,-0.3 0.1,-0.8 l 0.1,-0.3 c 0.2,-0.6 0.4,-1.2 0.6,-1.6 h 2.8 c 0.3,0.8 0.7,1.7 0.9,2.2 0.1,0.3 0.1,0.4 0.1,0.5 0,0.1 -0.2,0.1 -0.4,0.2 l -0.5,0.1 H 195 v 0.1 0.5 0.1 h 0.1 4.2 0.1 v -0.1 -0.5 -0.1 h -0.1 c -1,-0.1 -1.1,-0.2 -1.7,-1.6"
   id="path109" />
	<path
   class="st0"
   d="m 210.7,64.1 h -0.1 v 0.1 0.5 0.1 h 0.1 c 1.1,0.1 1.4,0.3 1.4,0.7 0.1,0.7 0.1,1.8 0.1,3.2 v 2.7 L 206,64.1 v 0 0 h -2.6 -0.1 v 0.1 0.5 0.1 h 0.1 c 1.2,0.1 1.5,0.4 1.5,2.2 v 3.1 c 0,1.4 0,2.5 -0.1,3.2 -0.1,0.4 -0.3,0.7 -1.2,0.7 h -0.1 v 0.1 0.5 0.1 h 0.1 3.9 0.1 V 74.6 74.1 74 h -0.1 c -1.1,-0.1 -1.4,-0.3 -1.4,-0.7 C 206,72.6 206,71.5 206,70.1 V 67 l 6.4,7.8 v 0.1 h 0.1 0.7 0.1 v -0.1 -6.1 c 0,-1.4 0,-2.5 0.1,-3.2 0.1,-0.4 0.3,-0.7 1.2,-0.7 h 0.1 v -0.1 -0.5 -0.1 h -0.1 z"
   id="path111" />
	<path
   class="st0"
   d="m 219.4,64.1 h -0.1 v 0.1 0.5 0.1 h 0.1 c 1.1,0.1 1.3,0.1 1.3,1.8 v 5.6 c 0,1.7 -0.1,1.7 -1.3,1.8 h -0.1 v 0.1 0.5 0.1 h 0.1 4.5 0.1 V 74.6 74.1 74 h -0.1 c -1.1,-0.1 -1.2,-0.1 -1.2,-1.8 v -5.6 c 0,-1.7 0.1,-1.7 1.2,-1.8 h 0.1 v -0.1 -0.5 -0.1 h -0.1 z"
   id="path113" />
	<path
   class="st0"
   d="m 236.7,71.9 h -0.1 V 72 c -0.3,0.8 -0.5,1.3 -0.8,1.6 -0.3,0.4 -1,0.4 -1.8,0.4 -0.6,0 -1.2,0 -1.5,-0.2 -0.2,-0.1 -0.3,-0.5 -0.3,-1.5 v -2.5 h 1.2 c 1.3,0 1.3,0 1.4,1.2 v 0.1 h 0.1 0.5 0.1 V 71 67.6 67.5 h -0.1 -0.5 0.1 v 0.1 c -0.2,1.2 -0.2,1.2 -1.4,1.2 h -1.2 v -3.3 c 0,-0.2 0,-0.4 0,-0.4 0,0 0.2,0 0.5,0 h 0.8 c 1,0 1.5,0.1 1.7,0.3 0.2,0.2 0.4,0.7 0.6,1.4 v 0.1 h 0.1 0.5 0.1 v -0.1 c -0.1,-0.6 -0.1,-1.2 -0.1,-1.7 0,-0.4 0,-0.6 -0.1,-0.7 v -0.1 h -0.1 -7.4 -0.1 v 0.1 0.5 0.1 h 0.1 c 1.1,0.1 1.2,0.1 1.2,1.8 v 5.6 c 0,1.7 -0.1,1.7 -1.4,1.8 h -0.1 v 0.1 0.5 0.1 h 0.1 7.9 0.1 v -0.1 c 0.1,-0.5 0.5,-2.1 0.6,-2.7 V 72 h -0.1 z"
   id="path115" />
	<path
   class="st0"
   d="m 246.2,68.5 -0.4,-0.2 c -1.3,-0.6 -1.8,-1.1 -1.8,-1.9 0,-0.8 0.5,-1.5 1.5,-1.5 1.2,0 1.7,1 2,2 V 67 h 0.1 l 0.5,-0.1 h 0.1 V 66.8 C 248.1,66 248,65.3 247.9,64.6 v -0.1 h -0.1 c -0.1,0 -0.2,-0.1 -0.3,-0.1 -0.1,0 -0.2,-0.1 -0.3,-0.1 -0.4,-0.2 -1,-0.2 -1.5,-0.2 -2.1,0 -3.6,1.3 -3.6,3.2 0,1.6 1.3,2.5 2.5,3.1 l 0.5,0.3 c 1.2,0.6 1.6,1.1 1.6,2 0,1 -0.6,1.7 -1.5,1.7 -1.5,0 -2.3,-1.6 -2.7,-2.5 l -0.1,-0.1 h -0.1 l -0.5,0.2 h -0.1 v 0.1 c 0.2,1.3 0.4,2.2 0.5,2.5 v 0.1 h 0.1 c 0.1,0 0.2,0.1 0.2,0.1 0.2,0.1 0.4,0.2 0.7,0.2 0.3,0.1 0.9,0.3 1.6,0.3 2.2,0 3.8,-1.4 3.8,-3.4 0.1,-2.1 -1.4,-2.9 -2.4,-3.4"
   id="path117" />
	<path
   class="st0"
   d="m 95,23.6 c -1.5,3 -2.9,4.7 -6,4.7 -4.1,0 -6.8,-3.6 -6.8,-9.1 0,-3.8 1.8,-8.2 6.8,-8.2 3,0 4.5,1.2 5.3,4.2 l 0.1,0.2 1.3,-0.2 L 95.6,14 95.1,10 H 94.9 L 94.4,9.9 c -1,-0.2 -2.8,-0.7 -4.9,-0.7 -7,0 -11.8,4.4 -11.8,10.8 0,5 3.5,10.1 11.3,10.1 2,0 4.6,-0.6 5.7,-0.9 h 0.1 l 0.1,-0.1 c 0.5,-1.1 1.1,-3.4 1.5,-5 l 0.1,-0.3 -1.3,-0.3 z"
   id="path119" />
	<path
   class="st0"
   d="m 108.3,10.9 c 3.9,0 6.2,3.5 6.2,9.4 0,5 -2,7.9 -5.2,7.9 -3.9,0 -6.3,-3.7 -6.3,-9.3 -0.1,-4.8 2.1,-8 5.3,-8 m 10.6,8.3 c 0,-5.7 -4.2,-10.1 -9.7,-10.1 -7,0 -10.7,5.5 -10.7,10.8 0,5.9 4.2,10.1 10,10.1 6.1,0 10.4,-4.6 10.4,-10.8"
   id="path121" />
</g>
<polygon
   class="st0"
   points="127.2,21.9 127.2,19.3 126.9,19.3 120.1,19.3 120.1,21.9 "
   id="polygon125"
   transform="translate(-7.4,-7.2)" />
<g
   id="g179"
   transform="translate(-7.4,-7.2)">
	<path
   class="st0"
   d="m 138.2,10.9 c 3.9,0 6.2,3.5 6.2,9.4 0,5 -1.9,7.9 -5.2,7.9 -3.9,0 -6.3,-3.7 -6.3,-9.3 -0.1,-4.8 2.1,-8 5.3,-8 m 0.2,19.1 c 6,0 10.4,-4.5 10.4,-10.8 0,-5.7 -4.2,-10.1 -9.7,-10.1 -7,0 -10.7,5.5 -10.7,10.8 0,5.8 4.2,10.1 10,10.1"
   id="path127" />
	<path
   class="st0"
   d="m 159.8,11.3 c 2.6,0 3.9,1.4 3.9,4 0,4.4 -3.2,4.5 -3.5,4.5 -0.6,0 -1.1,-0.1 -1.5,-0.3 v -7.4 c -0.1,-0.8 -0.1,-0.8 1.1,-0.8 m 1.8,16.9 h -0.3 c -2.6,-0.2 -2.7,-0.3 -2.7,-3.4 v -3.5 c 0.5,0.1 1.6,0.4 1.6,0.4 0.1,0 1.5,-0.1 1.5,-0.1 3.1,-0.4 6.2,-2.5 6.2,-6.4 0,-2 -0.7,-3.4 -2.1,-4.4 -1.2,-0.8 -2.9,-1.2 -5.3,-1.2 h -7.8 -0.3 V 11 h 0.3 c 1.9,0.2 2.1,0.2 2.1,3.4 v 10.4 c 0,3.2 -0.2,3.2 -2.2,3.4 h -0.3 v 1.4 h 9.3 z"
   id="path129" />
	<path
   class="st0"
   d="m 186.2,29.3 c 0.2,-0.8 0.9,-3.9 1,-4.9 v -0.3 l -1.4,-0.3 -0.1,0.2 c -0.5,1.4 -1,2.4 -1.5,2.9 -0.6,0.7 -2,0.8 -3.3,0.8 -1.2,0 -2.2,0 -2.7,-0.3 -0.4,-0.3 -0.5,-1 -0.5,-2.7 v -4.6 h 2.3 c 2.4,0 2.4,0 2.6,2.2 v 0.2 h 1.5 v -6.9 h -1.5 v 0.2 C 182.3,18 182.3,18 180,18 h -2.3 v -6 c 0,-0.8 0,-0.8 0.9,-0.8 h 1.5 c 1.8,0 2.7,0.2 3.1,0.6 0.4,0.4 0.8,1.3 1,2.6 v 0.2 l 1.4,-0.1 -0.4,-5.1 h -0.3 -13.8 v 1.4 h 0.3 c 2,0.2 2.2,0.2 2.2,3.4 v 10.4 c 0,3.1 -0.2,3.2 -2.5,3.4 h -0.3 v 1.4 h 15.1 z"
   id="path131" />
	<path
   class="st0"
   d="m 199.1,11.3 c 1.8,0 3.8,1 3.8,3.9 0,1.1 -0.3,2.6 -1.5,3.6 -0.7,0.5 -1.4,0.7 -2.6,0.7 H 198 v -7.4 c -0.1,-0.8 -0.1,-0.8 1.1,-0.8 m 1.3,16.9 h -0.3 c -2,-0.2 -2.3,-0.2 -2.3,-3.4 v -3.7 h 0.7 c 0.7,0 1,0.2 1.5,1 l 0.6,1.1 c 0.7,1.3 1.5,2.7 2.2,3.8 1.2,1.8 2.4,2.6 5.6,2.9 0,0 1.5,0.1 1.5,0.1 l 0.2,-1.3 -0.2,-0.1 c -0.8,-0.2 -1.2,-0.6 -1.9,-1.3 -0.6,-0.6 -1.4,-1.7 -2.4,-3.3 -0.8,-1.2 -1.9,-3 -2.4,-3.9 0,0 0,0 0,-0.1 2.5,-1 3.9,-2.9 3.9,-5.3 0,-2.2 -1.1,-3.4 -2.1,-4 -1.2,-0.8 -2.6,-1.1 -5.1,-1.1 h -8 -0.3 V 11 h 0.3 c 2,0.2 2.2,0.2 2.2,3.4 v 10.4 c 0,3.1 -0.2,3.2 -2.4,3.4 h -0.3 v 1.4 h 9 z"
   id="path133" />
	<path
   class="st0"
   d="m 218.1,20.7 c 0.2,-0.6 1.6,-4.6 2,-5.6 0.3,1 1.8,5 2,5.6 z m 0.1,7.5 -1.1,-0.1 c -0.6,-0.1 -0.9,-0.2 -1,-0.3 0,-0.1 -0.1,-0.2 -0.1,-0.3 0,-0.2 0.1,-0.6 0.3,-1.1 l 0.2,-0.6 c 0,0 1,-2.7 1.1,-3 h 5.1 c 0.1,0.3 1.6,4.1 1.6,4.1 0.1,0.3 0.2,0.6 0.2,0.8 0,0.1 0,0.1 0,0.2 -0.1,0.2 -0.5,0.2 -0.8,0.3 0,0 -0.8,0.1 -0.8,0.1 h -0.2 v 1.4 h 8.4 v -1.4 h -0.3 c -1.6,-0.2 -1.9,-0.3 -2.9,-2.9 l -2.2,-6.1 -1.6,-4.2 -2.1,-5.8 -0.2,0.1 -1.3,0.4 -6.1,15.7 c -1,2.6 -1.3,2.7 -3,2.9 h -0.2 v 1.4 h 7.2 v -1.6 z"
   id="path135" />
	<path
   class="st0"
   d="m 231.8,14.6 c 0.3,-1.3 0.6,-2.1 1,-2.5 0.4,-0.5 1.2,-0.8 3.6,-0.8 h 0.7 v 13.5 c 0,3.2 -0.2,3.2 -2.6,3.4 h -0.3 v 1.4 h 9.8 v -1.4 h -0.3 C 241.1,28 241,27.9 241,24.8 V 11.3 h 1.3 c 1.8,0 2.7,0.2 3.1,0.6 0.5,0.5 0.8,1.3 1,2.6 v 0.2 l 1.4,-0.1 -0.4,-6 h -0.3 -0.5 -0.1 l -0.1,0.1 c -0.5,0.6 -0.6,0.7 -1.2,0.7 H 233 c -0.8,0 -1,0 -1.3,-0.6 l -0.1,-0.1 h -1 l -0.2,3.4 -0.2,2.6 h 1.4 z"
   id="path137" />
	<path
   class="st0"
   d="m 260.2,28.2 h -0.3 c -2,-0.2 -2.3,-0.2 -2.3,-3.4 V 14.3 c 0,-3.2 0.2,-3.2 2.3,-3.4 h 0.3 V 9.6 h -0.3 -8.7 V 11 h 0.3 c 2.1,0.2 2.3,0.2 2.3,3.4 v 10.4 c 0,3.2 -0.2,3.2 -2.3,3.4 h -0.3 v 1.4 h 9 z"
   id="path139" />
	<path
   class="st0"
   d="M 277,9.6 V 11 l 1.1,0.1 c 0.6,0.1 0.8,0.2 1,0.3 0.1,0.1 0.1,0.2 0.1,0.3 0,0.3 -0.1,0.7 -0.3,1.4 0,0 -3.1,8.4 -4,10.9 -0.2,-0.4 -0.3,-0.9 -0.3,-0.9 -1.7,-4.3 -3.6,-9.2 -4.1,-10.9 -0.1,-0.2 -0.2,-0.6 -0.2,-0.8 0,-0.1 0,-0.1 0,-0.1 0.1,-0.1 0.6,-0.2 0.8,-0.2 0,0 1.2,-0.2 1.2,-0.2 V 9.6 h -8.6 V 11 h 0.3 c 1.5,0.2 1.9,0.2 2.9,2.9 0,0 1.8,4.6 1.8,4.6 l 4.3,11.3 h 1.7 l 0.1,-0.2 c 2.3,-6 6,-14.9 6.3,-15.5 1.4,-2.7 1.4,-2.8 3.2,-3.1 h 0.3 V 9.6 H 284 Z"
   id="path141" />
	<path
   class="st0"
   d="m 302.2,23.9 -0.1,0.2 c -0.5,1.4 -1,2.4 -1.5,2.9 -0.6,0.7 -2,0.8 -3.3,0.8 -1.2,0 -2.2,0 -2.7,-0.3 -0.4,-0.3 -0.5,-1 -0.5,-2.7 v -4.6 h 2.3 c 2.4,0 2.4,0 2.6,2.2 v 0.2 h 1.5 V 15.7 H 299 v 0.2 c -0.3,2.2 -0.3,2.2 -2.6,2.2 h -2.3 v -6 c 0,-0.8 0,-0.8 0.9,-0.8 h 1.5 c 1.8,0 2.7,0.2 3.1,0.6 0.4,0.4 0.8,1.3 1,2.6 l 0.1,0.2 1.4,-0.1 -0.4,-5.1 h -0.3 -13.8 v 1.4 h 0.3 c 2,0.2 2.2,0.2 2.2,3.4 v 10.4 c 0,3.1 -0.2,3.2 -2.5,3.4 h -0.3 v 1.4 h 15.1 l 0.1,-0.2 c 0.2,-0.8 0.9,-3.9 1,-4.9 v -0.3 z"
   id="path143" />
	<path
   class="st0"
   d="m 101.6,36.4 v 1.4 h 0.3 c 2.1,0.2 2.3,0.2 2.3,3.4 v 10.4 c 0,3.2 -0.2,3.2 -2.3,3.4 h -0.3 v 1.4 h 9 V 55 h -0.3 c -2,-0.2 -2.2,-0.2 -2.2,-3.4 V 41.2 c 0,-3.2 0.2,-3.2 2.2,-3.4 h 0.3 v -1.4 h -0.3 z"
   id="path145" />
	<path
   class="st0"
   d="m 126.9,36.4 v 1.4 h 0.3 c 2.1,0.1 2.5,0.6 2.6,1.3 0.2,1.3 0.3,3.3 0.3,5.9 v 5 C 129.3,49.1 118.5,36.4 118.5,36.4 h -5.3 v 1.4 h 0.3 c 2.2,0.2 2.8,0.7 2.8,4.1 v 5.9 c 0,2.6 -0.1,4.6 -0.3,5.9 -0.1,0.7 -0.5,1.2 -2.2,1.3 h -0.3 v 1.4 h 7.8 V 55 H 121 c -2.1,-0.1 -2.5,-0.5 -2.6,-1.3 -0.2,-1.3 -0.3,-3.3 -0.3,-5.9 V 42 c 0.8,1 11.9,14.6 11.9,14.6 h 1.8 V 45.1 c 0,-2.6 0.1,-4.6 0.3,-5.9 0.1,-0.7 0.5,-1.2 2.2,-1.3 h 0.3 v -1.4 h -0.3 -7.4 z"
   id="path147" />
	<path
   class="st0"
   d="m 145.9,44.5 -0.8,-0.4 c -2.4,-1.1 -3.3,-2.1 -3.3,-3.6 0,-1.4 0.9,-2.9 2.8,-2.9 2.3,0 3.1,1.8 3.7,3.6 l 0.1,0.2 1.5,-0.3 -0.7,-4.5 h -0.1 l -0.6,-0.2 -0.6,-0.2 c -0.8,-0.3 -1.8,-0.4 -2.8,-0.4 -3.9,0 -6.6,2.5 -6.6,6 0,3 2.5,4.7 4.6,5.8 0,0 1,0.5 1,0.5 2.5,1.2 3,2.4 3,3.8 0,1.8 -1.2,3.1 -2.9,3.1 -2.8,0 -4.3,-2.9 -5,-4.7 l -0.1,-0.3 -1.4,0.5 v 0.2 c 0.4,2.5 0.7,4 0.9,4.7 v 0.1 l 0.6,0.2 1.3,0.5 c 0.6,0.2 1.7,0.5 3.1,0.5 4.2,0 7.1,-2.6 7.1,-6.3 -0.2,-3.4 -2.8,-5 -4.8,-5.9"
   id="path149" />
	<path
   class="st0"
   d="m 166.7,36.4 v 1.4 h 0.3 c 2.1,0.1 2.5,0.6 2.6,1.3 0.2,1.3 0.3,3.3 0.3,5.9 v 1.8 c 0,5.1 -1.7,7.7 -5.1,7.7 -3.2,0 -4.8,-2.3 -4.8,-7.1 v -6.3 c 0,-3.1 0.2,-3.1 2.2,-3.3 h 0.3 v -1.4 h -9 v 1.4 h 0.3 c 2.2,0.2 2.4,0.2 2.4,3.3 V 48 c 0,3.6 0.7,5.9 2.3,7.2 1.3,1.1 3.2,1.6 5.5,1.6 2.2,0 4.4,-0.9 5.7,-2.3 1.5,-1.6 2.3,-4 2.3,-7.3 v -2.1 c 0,-2.6 0.1,-4.6 0.3,-5.9 0.1,-0.7 0.5,-1.2 2.1,-1.3 h 0.3 v -1.4 h -0.3 -7.7 z"
   id="path151" />
	<path
   class="st0"
   d="m 183.4,38.9 c 0,-0.8 0,-0.8 1.2,-0.8 1.8,0 3.8,1 3.8,3.9 0,1.1 -0.3,2.6 -1.5,3.6 -0.7,0.5 -1.4,0.7 -2.6,0.7 h -0.8 v -7.4 z m 10.1,15.2 c -0.6,-0.6 -1.3,-1.7 -2.4,-3.3 -0.8,-1.2 -1.9,-3 -2.4,-3.9 0,0 0,0 0,-0.1 2.5,-1 3.9,-2.9 3.9,-5.3 0,-2.2 -1.1,-3.4 -2.1,-4 -1.2,-0.8 -2.6,-1.1 -5.1,-1.1 h -8 -0.4 v 1.4 h 0.3 c 2,0.2 2.2,0.2 2.2,3.4 v 10.4 c 0,3.1 -0.2,3.2 -2.4,3.4 h -0.3 v 1.4 h 9 V 55 h -0.3 c -2,-0.2 -2.2,-0.2 -2.2,-3.4 v -3.7 h 0.7 c 0.7,0 1,0.2 1.5,1 l 0.6,1.1 c 0.7,1.3 1.5,2.7 2.2,3.8 1.2,1.8 2.4,2.6 5.6,2.9 0,0 1.5,0.1 1.5,0.1 l 0.2,-1.3 -0.3,-0.1 c -0.6,-0.2 -1.1,-0.6 -1.8,-1.3"
   id="path153" />
	<path
   class="st0"
   d="m 207.5,47.6 h -4 c 0.2,-0.6 1.6,-4.6 2,-5.6 0.4,1 1.8,5 2,5.6 m 5.8,4.5 -2.2,-6.1 -1.5,-4.2 -2.2,-5.8 -0.2,0.1 -1.3,0.4 -6.1,15.7 c -1,2.6 -1.3,2.6 -3,2.9 h -0.2 v 1.4 h 7.2 V 55 l -1.1,-0.1 c -0.6,-0.1 -0.9,-0.2 -1,-0.3 0,-0.1 -0.1,-0.2 -0.1,-0.3 0,-0.3 0.1,-0.6 0.3,-1.1 0,0 0.2,-0.6 0.2,-0.6 0,0 1,-2.7 1.1,-3 h 5.1 c 0.1,0.3 1.6,4.1 1.6,4.1 0.1,0.3 0.2,0.6 0.2,0.8 0,0.1 0,0.1 0,0.2 -0.1,0.1 -0.5,0.2 -0.8,0.3 0,0 -0.8,0.1 -0.8,0.1 h -0.2 v 1.4 h 8.4 V 55 h -0.3 c -1.8,-0.2 -2.1,-0.3 -3.1,-2.9"
   id="path155" />
	<path
   class="st0"
   d="m 231.7,36.4 v 1.4 h 0.3 c 2.1,0.1 2.5,0.6 2.6,1.3 0.2,1.3 0.3,3.3 0.3,5.9 v 5 C 234.1,49.1 223.3,36.4 223.3,36.4 H 218 v 1.4 h 0.3 c 2.2,0.2 2.8,0.7 2.8,4.1 v 5.9 c 0,2.6 -0.1,4.6 -0.3,5.9 -0.1,0.7 -0.5,1.2 -2.2,1.3 h -0.3 v 1.4 h 7.8 V 55 h -0.3 c -2.1,-0.1 -2.5,-0.5 -2.6,-1.3 -0.2,-1.3 -0.3,-3.3 -0.3,-5.9 V 42 c 0.8,1 11.9,14.6 11.9,14.6 h 1.8 V 45.1 c 0,-2.6 0.1,-4.6 0.3,-5.9 0.1,-0.7 0.5,-1.2 2.2,-1.3 h 0.3 v -1.4 h -0.3 -7.4 z"
   id="path157" />
	<path
   class="st0"
   d="m 259.7,50.4 c -1.5,3 -2.9,4.7 -6,4.7 -4.2,0 -6.8,-3.6 -6.8,-9.1 0,-3.8 1.8,-8.2 6.8,-8.2 2.9,0 4.5,1.2 5.3,4.2 l 0.1,0.2 1.3,-0.2 -0.1,-1.1 -0.5,-4.1 h -0.2 l -0.5,-0.1 c -1,-0.3 -2.8,-0.7 -4.9,-0.7 -6.9,0 -11.8,4.4 -11.8,10.8 0,5 3.5,10.1 11.3,10.1 2,0 4.6,-0.6 5.7,-0.9 h 0.1 l 0.1,-0.1 c 0.5,-1.1 1.1,-3.4 1.5,-5 l 0.1,-0.3 -1.3,-0.3 z"
   id="path159" />
	<path
   class="st0"
   d="m 278.1,51 c -0.5,1.4 -1,2.4 -1.5,2.9 -0.6,0.7 -2,0.8 -3.3,0.8 -1.2,0 -2.2,0 -2.7,-0.3 -0.4,-0.3 -0.5,-1 -0.5,-2.7 V 47 h 2.3 c 2.4,0 2.4,0 2.7,2.2 v 0.2 h 1.5 V 42.5 H 275 v 0.2 c -0.3,2.2 -0.3,2.2 -2.7,2.2 H 270 v -6 c 0,-0.8 0,-0.8 0.9,-0.8 h 1.5 c 1.8,0 2.7,0.2 3.1,0.6 0.4,0.4 0.8,1.3 1,2.6 v 0.2 l 1.4,-0.1 -0.4,-5.1 h -0.3 -13.8 v 1.4 h 0.3 c 2,0.2 2.2,0.2 2.2,3.4 v 10.4 c 0,3.1 -0.2,3.2 -2.5,3.4 h -0.3 v 1.4 h 15.1 l 0.1,-0.2 c 0.2,-0.8 0.9,-3.9 1,-4.9 v -0.3 l -1.4,-0.3 z"
   id="path161" />
	<path
   class="st1"
   d="m 55,47.2 c 1,0 1.8,0.2 1.8,-0.8 V 30.3 c 0,-1 -0.8,-1.8 -1.8,-1.8 h -4.2 c -1,0 -1.8,0.8 -1.8,1.8 v 16.1 c 0,1 0.8,0.8 1.8,0.8 z"
   id="path163" />
	<path
   class="st1"
   d="m 44.6,40.1 c 0,-1 -0.8,-1.8 -1.8,-1.8 h -4.3 c -0.9,0 -1.7,0.7 -1.8,1.6 v 0 0.5 C 36.6,41.9 35.5,43 34,43 h -4.1 c -1.5,0 -2.7,-1.2 -2.7,-2.6 V 25.6 c 0,-1.5 1.2,-2.6 2.7,-2.6 H 34 c 1,0 1.8,0.5 2.3,1.3 0.3,0.4 0.4,0.9 0.4,1.5 v 0.3 0 c 0.1,0.9 0.9,1.7 1.8,1.7 h 4.2 c 1,0 1.8,-0.8 1.8,-1.8 V 24.1 C 44.3,21.3 41.9,19 39.1,19 H 24.7 v 0 c -2.9,0 -5.3,2.2 -5.4,5.1 0,0 0,0.2 0,0.4 V 40 c 0,0 0,0.1 0,0.1 v 2.3 c 0,0.4 0.1,0.7 0.2,1 0.6,1.8 2.3,3.2 4.2,3.6 0.4,0.1 0.7,0.1 1.1,0.1 v 0 h 14.4 c 2.4,0 4.6,-1.5 5.3,-3.7 0.1,-0.3 0.2,-0.6 0.2,-1 v -2.3 z"
   id="path165" />
	<path
   class="st0"
   d="m 68.7,21.2 v 23.5 c 0,7.7 -6.3,14 -14,14 H 21.4 c -7.7,0 -14,-6.3 -14,-14 V 21.2 c 0,-7.7 6.3,-14 14,-14 h 33.3 c 7.7,0 14,6.3 14,14"
   id="path167" />
	<path
   class="st1"
   d="M 54.6,9.6 H 21.5 C 15.1,9.6 9.8,14.8 9.8,21.3 v 23.4 c 0,6.5 5.2,11.7 11.7,11.7 h 33.1 c 6.5,0 11.7,-5.2 11.7,-11.7 V 21.3 C 66.3,14.8 61.1,9.6 54.6,9.6"
   id="path169" />
	<path
   class="st0"
   d="m 21.6,12 c -5.2,0 -9.4,4.2 -9.4,9.4 v 23.3 c 0,5.2 4.2,9.4 9.4,9.4 h 32.9 c 5.2,0 9.4,-4.2 9.4,-9.4 V 21.4 C 63.9,16.2 59.7,12 54.5,12 Z"
   id="path171" />
	<path
   class="st1"
   d="m 52.9,26.3 c 2.1,0 3.8,-1.7 3.8,-3.8 0,-2.1 -1.7,-3.8 -3.8,-3.8 -2.1,0 -3.8,1.7 -3.8,3.8 0,2.1 1.7,3.8 3.8,3.8"
   id="path173" />
	<path
   class="st1"
   d="m 55,47.2 c 1,0 1.8,0.2 1.8,-0.8 V 30.3 c 0,-1 -0.8,-1.8 -1.8,-1.8 h -4.2 c -1,0 -1.8,0.8 -1.8,1.8 v 16.1 c 0,1 0.8,0.8 1.8,0.8 z"
   id="path175" />
	<path
   class="st1"
   d="m 44.6,40.1 c 0,-1 -0.8,-1.8 -1.8,-1.8 h -4.3 c -0.9,0 -1.7,0.7 -1.8,1.6 v 0 0.5 C 36.6,41.9 35.5,43 34,43 h -4.1 c -1.5,0 -2.7,-1.2 -2.7,-2.6 V 25.6 c 0,-1.5 1.2,-2.6 2.7,-2.6 H 34 c 1,0 1.8,0.5 2.3,1.3 0.3,0.4 0.4,0.9 0.4,1.5 v 0.3 0 c 0.1,0.9 0.9,1.7 1.8,1.7 h 4.2 c 1,0 1.8,-0.8 1.8,-1.8 V 24.1 C 44.3,21.3 41.9,19 39.1,19 H 24.7 v 0 c -2.9,0 -5.3,2.2 -5.4,5.1 0,0 0,0.2 0,0.4 V 40 c 0,0 0,0.1 0,0.1 v 2.3 c 0,0.4 0.1,0.7 0.2,1 0.6,1.8 2.3,3.2 4.2,3.6 0.4,0.1 0.7,0.1 1.1,0.1 v 0 h 14.4 c 2.4,0 4.6,-1.5 5.3,-3.7 0.1,-0.3 0.2,-0.6 0.2,-1 v -2.3 z"
   id="path177" />
</g>
</svg>
