<svg xmlns="http://www.w3.org/2000/svg" version="1.1" xmlns:xlink="http://www.w3.org/1999/xlink" xmlns:svgjs="http://svgjs.dev/svgjs" viewBox="0 0 9.531563294933472 11.04465863485199"><g transform="matrix(1,0,0,1,0.8545572822323608,8.178996602619629)"><rect width="11.04465863485199" height="11.04465863485199" x="-1.6111049521916199" y="-8.178996602619629" fill="#ffffff"></rect><g><path d=" M 0.1485 1.0649999999999997 Q 0.132 1.0649999999999997 0.1215 1.0544999999999998 Q 0.111 1.0439999999999998 0.111 1.0274999999999996 L 0.111 0.05249999999999977 Q 0.111 0.03599999999999981 0.1215 0.025499999999999634 Q 0.132 0.01499999999999968 0.1485 0.01499999999999968 L 0.8175 0.01499999999999968 Q 0.834 0.01499999999999968 0.8445 0.025499999999999634 Q 0.855 0.03599999999999981 0.855 0.05249999999999977 L 0.855 0.17999999999999972 Q 0.855 0.19649999999999967 0.8445 0.20699999999999974 Q 0.834 0.2174999999999997 0.8175 0.2174999999999997 L 0.34500000000000003 0.2174999999999997 L 0.34500000000000003 0.47099999999999975 L 0.7875 0.47099999999999975 Q 0.804 0.47099999999999975 0.8145 0.4814999999999997 Q 0.8250000000000001 0.49199999999999966 0.8250000000000001 0.5084999999999997 L 0.8250000000000001 0.6359999999999997 Q 0.8250000000000001 0.6509999999999997 0.8145 0.6614999999999998 Q 0.804 0.6719999999999997 0.7875 0.6719999999999997 L 0.34500000000000003 0.6719999999999997 L 0.34500000000000003 1.0274999999999996 Q 0.34500000000000003 1.0439999999999998 0.3345 1.0544999999999998 Q 0.324 1.0649999999999997 0.3075 1.0649999999999997 L 0.1485 1.0649999999999997 M 1.434005859375 1.0799999999999996 Q 1.297505859375 1.0799999999999996 1.198505859375 1.0349999999999997 Q 1.099505859375 0.9899999999999998 1.044005859375 0.8992499999999997 Q 0.988505859375 0.8084999999999998 0.984005859375 0.6704999999999997 Q 0.982505859375 0.6059999999999997 0.982505859375 0.5422499999999997 Q 0.982505859375 0.4784999999999997 0.984005859375 0.41249999999999976 Q 0.988505859375 0.27749999999999975 1.044755859375 0.1852499999999997 Q 1.101005859375 0.09299999999999975 1.200755859375 0.046499999999999764 Q 1.300505859375 -2.220446049250313e-16 1.434005859375 -2.220446049250313e-16 Q 1.5660058593750001 -2.220446049250313e-16 1.665755859375 0.046499999999999764 Q 1.7655058593750002 0.09299999999999975 1.822505859375 0.1852499999999997 Q 1.879505859375 0.27749999999999975 1.8825058593750001 0.41249999999999976 Q 1.885505859375 0.4784999999999997 1.885505859375 0.5422499999999997 Q 1.885505859375 0.6059999999999997 1.8825058593750001 0.6704999999999997 Q 1.878005859375 0.8084999999999998 1.822505859375 0.8992499999999997 Q 1.767005859375 0.9899999999999998 1.668005859375 1.0349999999999997 Q 1.569005859375 1.0799999999999996 1.434005859375 1.0799999999999996 M 1.434005859375 0.8864999999999997 Q 1.521005859375 0.8864999999999997 1.5772558593750001 0.8332499999999997 Q 1.633505859375 0.7799999999999997 1.6365058593750001 0.6629999999999997 Q 1.639505859375 0.5969999999999998 1.639505859375 0.5392499999999997 Q 1.639505859375 0.4814999999999997 1.6365058593750001 0.4169999999999997 Q 1.635005859375 0.33899999999999975 1.608005859375 0.28949999999999976 Q 1.581005859375 0.23999999999999966 1.536755859375 0.21674999999999967 Q 1.492505859375 0.19349999999999967 1.434005859375 0.19349999999999967 Q 1.375505859375 0.19349999999999967 1.330505859375 0.21674999999999967 Q 1.285505859375 0.23999999999999966 1.259255859375 0.28949999999999976 Q 1.233005859375 0.33899999999999975 1.230005859375 0.4169999999999997 Q 1.228505859375 0.4814999999999997 1.228505859375 0.5392499999999997 Q 1.228505859375 0.5969999999999998 1.230005859375 0.6629999999999997 Q 1.234505859375 0.7799999999999997 1.290005859375 0.8332499999999997 Q 1.345505859375 0.8864999999999997 1.434005859375 0.8864999999999997 M 2.10901025390625 1.0649999999999997 Q 2.09251025390625 1.0649999999999997 2.08201025390625 1.0544999999999998 Q 2.07151025390625 1.0439999999999998 2.07151025390625 1.0274999999999996 L 2.07151025390625 0.05249999999999977 Q 2.07151025390625 0.03599999999999981 2.08201025390625 0.025499999999999634 Q 2.09251025390625 0.01499999999999968 2.10901025390625 0.01499999999999968 L 2.5065102539062503 0.01499999999999968 Q 2.6940102539062503 0.01499999999999968 2.80201025390625 0.10124999999999973 Q 2.91001025390625 0.18749999999999967 2.91001025390625 0.3494999999999997 Q 2.91001025390625 0.45899999999999974 2.8575102539062502 0.5324999999999998 Q 2.80501025390625 0.6059999999999997 2.7165102539062502 0.6419999999999997 L 2.9280102539062502 1.0169999999999997 Q 2.93251025390625 1.0259999999999998 2.93251025390625 1.0334999999999996 Q 2.93251025390625 1.0454999999999997 2.92351025390625 1.0552499999999998 Q 2.91451025390625 1.0649999999999997 2.90101025390625 1.0649999999999997 L 2.73451025390625 1.0649999999999997 Q 2.70751025390625 1.0649999999999997 2.6940102539062503 1.0507499999999996 Q 2.6805102539062498 1.0364999999999998 2.67451025390625 1.0244999999999997 L 2.49151025390625 0.6809999999999997 L 2.31001025390625 0.6809999999999997 L 2.31001025390625 1.0274999999999996 Q 2.31001025390625 1.0439999999999998 2.29951025390625 1.0544999999999998 Q 2.28901025390625 1.0649999999999997 2.27251025390625 1.0649999999999997 L 2.10901025390625 1.0649999999999997 M 2.31001025390625 0.4904999999999997 L 2.50201025390625 0.4904999999999997 Q 2.58451025390625 0.4904999999999997 2.6242602539062503 0.45299999999999974 Q 2.66401025390625 0.41549999999999976 2.66401025390625 0.34799999999999975 Q 2.66401025390625 0.28049999999999975 2.62501025390625 0.24149999999999971 Q 2.58601025390625 0.20249999999999968 2.50201025390625 0.20249999999999968 L 2.31001025390625 0.20249999999999968 L 2.31001025390625 0.4904999999999997 M 3.352491943359375 1.0649999999999997 Q 3.335991943359375 1.0649999999999997 3.325491943359375 1.0544999999999998 Q 3.314991943359375 1.0439999999999998 3.314991943359375 1.0274999999999996 L 3.314991943359375 0.2234999999999997 L 3.041991943359375 0.2234999999999997 Q 3.026991943359375 0.2234999999999997 3.016491943359375 0.21299999999999975 Q 3.005991943359375 0.20249999999999968 3.005991943359375 0.18749999999999967 L 3.005991943359375 0.05249999999999977 Q 3.005991943359375 0.03599999999999981 3.016491943359375 0.025499999999999634 Q 3.026991943359375 0.01499999999999968 3.041991943359375 0.01499999999999968 L 3.827991943359375 0.01499999999999968 Q 3.844491943359375 0.01499999999999968 3.854991943359375 0.025499999999999634 Q 3.865491943359375 0.03599999999999981 3.865491943359375 0.05249999999999977 L 3.865491943359375 0.18749999999999967 Q 3.865491943359375 0.20249999999999968 3.854991943359375 0.21299999999999975 Q 3.844491943359375 0.2234999999999997 3.827991943359375 0.2234999999999997 L 3.556491943359375 0.2234999999999997 L 3.556491943359375 1.0274999999999996 Q 3.556491943359375 1.0439999999999998 3.545991943359375 1.0544999999999998 Q 3.535491943359375 1.0649999999999997 3.5189919433593753 1.0649999999999997 L 3.352491943359375 1.0649999999999997 M 4.04699853515625 1.0649999999999997 Q 4.03049853515625 1.0649999999999997 4.01999853515625 1.0544999999999998 Q 4.00949853515625 1.0439999999999998 4.00949853515625 1.0274999999999996 L 4.00949853515625 0.05249999999999977 Q 4.00949853515625 0.03599999999999981 4.01999853515625 0.025499999999999634 Q 4.03049853515625 0.01499999999999968 4.04699853515625 0.01499999999999968 L 4.44449853515625 0.01499999999999968 Q 4.63199853515625 0.01499999999999968 4.73999853515625 0.10124999999999973 Q 4.8479985351562505 0.18749999999999967 4.8479985351562505 0.3494999999999997 Q 4.8479985351562505 0.45899999999999974 4.79549853515625 0.5324999999999998 Q 4.74299853515625 0.6059999999999997 4.65449853515625 0.6419999999999997 L 4.86599853515625 1.0169999999999997 Q 4.8704985351562495 1.0259999999999998 4.8704985351562495 1.0334999999999996 Q 4.8704985351562495 1.0454999999999997 4.86149853515625 1.0552499999999998 Q 4.85249853515625 1.0649999999999997 4.83899853515625 1.0649999999999997 L 4.67249853515625 1.0649999999999997 Q 4.64549853515625 1.0649999999999997 4.63199853515625 1.0507499999999996 Q 4.61849853515625 1.0364999999999998 4.61249853515625 1.0244999999999997 L 4.42949853515625 0.6809999999999997 L 4.24799853515625 0.6809999999999997 L 4.24799853515625 1.0274999999999996 Q 4.24799853515625 1.0439999999999998 4.23749853515625 1.0544999999999998 Q 4.22699853515625 1.0649999999999997 4.21049853515625 1.0649999999999997 L 4.04699853515625 1.0649999999999997 M 4.24799853515625 0.4904999999999997 L 4.43999853515625 0.4904999999999997 Q 4.52249853515625 0.4904999999999997 4.56224853515625 0.45299999999999974 Q 4.60199853515625 0.41549999999999976 4.60199853515625 0.34799999999999975 Q 4.60199853515625 0.28049999999999975 4.56299853515625 0.24149999999999971 Q 4.52399853515625 0.20249999999999968 4.43999853515625 0.20249999999999968 L 4.24799853515625 0.20249999999999968 L 4.24799853515625 0.4904999999999997 M 5.0700087890625 1.0649999999999997 Q 5.0535087890625 1.0649999999999997 5.0430087890625 1.0544999999999998 Q 5.0325087890625 1.0439999999999998 5.0325087890625 1.0274999999999996 L 5.0325087890625 0.05249999999999977 Q 5.0325087890625 0.03599999999999981 5.0430087890625 0.025499999999999634 Q 5.0535087890625 0.01499999999999968 5.0700087890625 0.01499999999999968 L 5.7495087890625 0.01499999999999968 Q 5.7660087890625 0.01499999999999968 5.7765087890625 0.025499999999999634 Q 5.7870087890625 0.03599999999999981 5.7870087890625 0.05249999999999977 L 5.7870087890625 0.17249999999999965 Q 5.7870087890625 0.18749999999999967 5.7765087890625 0.19799999999999973 Q 5.7660087890625 0.20849999999999969 5.7495087890625 0.20849999999999969 L 5.2635087890625 0.20849999999999969 L 5.2635087890625 0.44399999999999973 L 5.7165087890625 0.44399999999999973 Q 5.7330087890625 0.44399999999999973 5.7435087890625 0.4544999999999997 Q 5.7540087890625 0.46499999999999975 5.7540087890625 0.4814999999999997 L 5.7540087890625 0.5924999999999997 Q 5.7540087890625 0.6074999999999997 5.7435087890625 0.6179999999999997 Q 5.7330087890625 0.6284999999999997 5.7165087890625 0.6284999999999997 L 5.2635087890625 0.6284999999999997 L 5.2635087890625 0.8714999999999997 L 5.7615087890625 0.8714999999999997 Q 5.7780087890625005 0.8714999999999997 5.7885087890625 0.8819999999999997 Q 5.7990087890625 0.8924999999999997 5.7990087890625 0.9089999999999997 L 5.7990087890625 1.0274999999999996 Q 5.7990087890625 1.0439999999999998 5.7885087890625 1.0544999999999998 Q 5.7780087890625005 1.0649999999999997 5.7615087890625 1.0649999999999997 L 5.0700087890625 1.0649999999999997 M 6.35551611328125 1.0799999999999996 Q 6.21151611328125 1.0799999999999996 6.11476611328125 1.0379999999999998 Q 6.01801611328125 0.9959999999999998 5.96851611328125 0.9284999999999997 Q 5.91901611328125 0.8609999999999998 5.91601611328125 0.7844999999999998 Q 5.91601611328125 0.7724999999999997 5.92501611328125 0.7627499999999997 Q 5.93401611328125 0.7529999999999997 5.94751611328125 0.7529999999999997 L 6.10801611328125 0.7529999999999997 Q 6.12751611328125 0.7529999999999997 6.13801611328125 0.7612499999999998 Q 6.14851611328125 0.7694999999999997 6.15751611328125 0.7814999999999996 Q 6.16801611328125 0.8069999999999997 6.19126611328125 0.8309999999999997 Q 6.21451611328125 0.8549999999999998 6.25501611328125 0.8707499999999997 Q 6.29551611328125 0.8864999999999997 6.35551611328125 0.8864999999999997 Q 6.45301611328125 0.8864999999999997 6.50176611328125 0.8549999999999998 Q 6.55051611328125 0.8234999999999997 6.55051611328125 0.7694999999999997 Q 6.55051611328125 0.7304999999999997 6.52426611328125 0.7064999999999997 Q 6.49801611328125 0.6824999999999997 6.4417661132812505 0.6629999999999997 Q 6.38551611328125 0.6434999999999997 6.29251611328125 0.6209999999999998 Q 6.18001611328125 0.5969999999999998 6.10126611328125 0.5587499999999997 Q 6.02251611328125 0.5204999999999997 5.98276611328125 0.45974999999999966 Q 5.94301611328125 0.3989999999999997 5.94301611328125 0.3089999999999997 Q 5.94301611328125 0.21899999999999975 5.99251611328125 0.14924999999999966 Q 6.04201611328125 0.07949999999999968 6.13201611328125 0.03974999999999973 Q 6.22201611328125 -2.220446049250313e-16 6.34651611328125 -2.220446049250313e-16 Q 6.44701611328125 -2.220446049250313e-16 6.52426611328125 0.02699999999999969 Q 6.60151611328125 0.053999999999999604 6.65326611328125 0.0974999999999997 Q 6.70501611328125 0.14099999999999968 6.73201611328125 0.19049999999999967 Q 6.75901611328125 0.23999999999999966 6.76051611328125 0.28649999999999975 Q 6.76051611328125 0.29849999999999965 6.75151611328125 0.3082499999999997 Q 6.74251611328125 0.3179999999999997 6.72901611328125 0.3179999999999997 L 6.56101611328125 0.3179999999999997 Q 6.54601611328125 0.3179999999999997 6.53401611328125 0.3119999999999997 Q 6.52201611328125 0.3059999999999997 6.51451611328125 0.2909999999999997 Q 6.50551611328125 0.25199999999999967 6.46126611328125 0.22274999999999967 Q 6.4170161132812495 0.19349999999999967 6.34651611328125 0.19349999999999967 Q 6.27301611328125 0.19349999999999967 6.23026611328125 0.2204999999999997 Q 6.18751611328125 0.24749999999999972 6.18751611328125 0.3029999999999997 Q 6.18751611328125 0.33899999999999975 6.20926611328125 0.3637499999999997 Q 6.23101611328125 0.38849999999999973 6.28276611328125 0.40724999999999967 Q 6.33451611328125 0.4259999999999997 6.42001611328125 0.4484999999999997 Q 6.55201611328125 0.4754999999999997 6.63451611328125 0.5129999999999997 Q 6.71701611328125 0.5504999999999998 6.75601611328125 0.6097499999999998 Q 6.79501611328125 0.6689999999999997 6.79501611328125 0.7589999999999997 Q 6.79501611328125 0.8594999999999997 6.73876611328125 0.9314999999999998 Q 6.68251611328125 1.0034999999999998 6.58426611328125 1.0417499999999997 Q 6.48601611328125 1.0799999999999996 6.35551611328125 1.0799999999999996 M 7.333482421875 1.0799999999999996 Q 7.189482421875 1.0799999999999996 7.092732421875 1.0379999999999998 Q 6.995982421875 0.9959999999999998 6.946482421875 0.9284999999999997 Q 6.896982421875 0.8609999999999998 6.893982421875 0.7844999999999998 Q 6.893982421875 0.7724999999999997 6.902982421875 0.7627499999999997 Q 6.911982421875 0.7529999999999997 6.925482421875 0.7529999999999997 L 7.085982421875 0.7529999999999997 Q 7.105482421875 0.7529999999999997 7.115982421875 0.7612499999999998 Q 7.126482421875 0.7694999999999997 7.135482421875 0.7814999999999996 Q 7.145982421875 0.8069999999999997 7.169232421875 0.8309999999999997 Q 7.192482421875 0.8549999999999998 7.232982421875 0.8707499999999997 Q 7.273482421875 0.8864999999999997 7.333482421875 0.8864999999999997 Q 7.430982421875 0.8864999999999997 7.479732421875 0.8549999999999998 Q 7.528482421875 0.8234999999999997 7.528482421875 0.7694999999999997 Q 7.528482421875 0.7304999999999997 7.502232421875 0.7064999999999997 Q 7.475982421875 0.6824999999999997 7.4197324218750005 0.6629999999999997 Q 7.363482421875 0.6434999999999997 7.270482421875 0.6209999999999998 Q 7.157982421875 0.5969999999999998 7.079232421875 0.5587499999999997 Q 7.000482421875 0.5204999999999997 6.960732421875 0.45974999999999966 Q 6.920982421875 0.3989999999999997 6.920982421875 0.3089999999999997 Q 6.920982421875 0.21899999999999975 6.970482421875 0.14924999999999966 Q 7.019982421875 0.07949999999999968 7.109982421875 0.03974999999999973 Q 7.199982421875 -2.220446049250313e-16 7.324482421875 -2.220446049250313e-16 Q 7.424982421875 -2.220446049250313e-16 7.502232421875 0.02699999999999969 Q 7.579482421875 0.053999999999999604 7.631232421875 0.0974999999999997 Q 7.682982421875 0.14099999999999968 7.709982421875 0.19049999999999967 Q 7.736982421875 0.23999999999999966 7.738482421875 0.28649999999999975 Q 7.738482421875 0.29849999999999965 7.729482421875 0.3082499999999997 Q 7.720482421875 0.3179999999999997 7.706982421875 0.3179999999999997 L 7.538982421875 0.3179999999999997 Q 7.523982421875 0.3179999999999997 7.511982421875 0.3119999999999997 Q 7.499982421875 0.3059999999999997 7.492482421875 0.2909999999999997 Q 7.483482421875 0.25199999999999967 7.439232421875 0.22274999999999967 Q 7.3949824218749995 0.19349999999999967 7.324482421875 0.19349999999999967 Q 7.250982421875 0.19349999999999967 7.208232421875 0.2204999999999997 Q 7.165482421875 0.24749999999999972 7.165482421875 0.3029999999999997 Q 7.165482421875 0.33899999999999975 7.187232421875 0.3637499999999997 Q 7.208982421875 0.38849999999999973 7.260732421875 0.40724999999999967 Q 7.312482421875 0.4259999999999997 7.397982421875 0.4484999999999997 Q 7.529982421875 0.4754999999999997 7.612482421875 0.5129999999999997 Q 7.694982421875 0.5504999999999998 7.733982421875 0.6097499999999998 Q 7.772982421875 0.6689999999999997 7.772982421875 0.7589999999999997 Q 7.772982421875 0.8594999999999997 7.716732421875 0.9314999999999998 Q 7.660482421875 1.0034999999999998 7.562232421875 1.0417499999999997 Q 7.463982421875 1.0799999999999996 7.333482421875 1.0799999999999996" fill="#f24d2c" fill-rule="nonzero"></path></g><g><path d=" M 2.012417462036133 2.0029597499999996 Q 2.003457962036133 2.0029597499999996 1.998570962036133 1.9976654999999996 Q 1.9936839620361329 1.9923712499999997 1.9936839620361329 1.9842262499999996 L 1.9936839620361329 1.4523577499999996 Q 1.9936839620361329 1.4433982499999995 1.998570962036133 1.4381039999999996 Q 2.003457962036133 1.4328097499999997 2.012417462036133 1.4328097499999997 L 2.235590462036133 1.4328097499999997 Q 2.296677962036133 1.4328097499999997 2.3353667120361328 1.4527649999999996 Q 2.374055462036133 1.4727202499999996 2.392381712036133 1.5069292499999996 Q 2.410707962036133 1.5411382499999995 2.410707962036133 1.5834922499999995 Q 2.410707962036133 1.6168867499999995 2.3997122120361327 1.6409144999999996 Q 2.388716462036133 1.6649422499999995 2.372426462036133 1.6800104999999996 Q 2.356136462036133 1.6950787499999995 2.340660962036133 1.7032237499999996 Q 2.372426462036133 1.7186992499999996 2.397268712036133 1.7537227499999997 Q 2.422110962036133 1.7887462499999995 2.422110962036133 1.8384307499999997 Q 2.422110962036133 1.8832282499999995 2.401748462036133 1.9206952499999996 Q 2.381385962036133 1.9581622499999995 2.341068212036133 1.9805609999999996 Q 2.3007504620361328 2.0029597499999996 2.242106462036133 2.0029597499999996 L 2.012417462036133 2.0029597499999996 M 2.0735049620361328 1.9369852499999995 L 2.2315179620361327 1.9369852499999995 Q 2.283645962036133 1.9369852499999995 2.312153462036133 1.9084777499999996 Q 2.340660962036133 1.8799702499999995 2.340660962036133 1.8384307499999997 Q 2.340660962036133 1.7952622499999995 2.312153462036133 1.7671619999999997 Q 2.283645962036133 1.7390617499999996 2.2315179620361327 1.7390617499999996 L 2.0735049620361328 1.7390617499999996 L 2.0735049620361328 1.9369852499999995 M 2.0735049620361328 1.6739017499999995 L 2.223372962036133 1.6739017499999995 Q 2.275500962036133 1.6739017499999995 2.302379462036133 1.6498739999999996 Q 2.329257962036133 1.6258462499999995 2.329257962036133 1.5843067499999997 Q 2.329257962036133 1.5427672499999996 2.302379462036133 1.5207757499999996 Q 2.275500962036133 1.4987842499999995 2.223372962036133 1.4987842499999995 L 2.0735049620361328 1.4987842499999995 L 2.0735049620361328 1.6739017499999995 M 2.6929596536865232 2.0029597499999996 Q 2.6848146536865234 2.0029597499999996 2.6795204036865234 1.9976654999999996 Q 2.6742261536865235 1.9923712499999997 2.6742261536865235 1.9842262499999996 L 2.6742261536865235 1.7920042499999995 L 2.4779316536865235 1.4596882499999997 Q 2.4771171536865233 1.4572447499999996 2.4763026536865236 1.4548012499999996 Q 2.4754881536865234 1.4523577499999996 2.4754881536865234 1.4490997499999996 Q 2.4754881536865234 1.4425837499999996 2.4803751536865235 1.4376967499999997 Q 2.4852621536865236 1.4328097499999997 2.4917781536865236 1.4328097499999997 L 2.5341321536865236 1.4328097499999997 Q 2.5414626536865232 1.4328097499999997 2.5471641536865235 1.4364749999999997 Q 2.5528656536865233 1.4401402499999996 2.5553091536865233 1.4466562499999995 L 2.7141366536865235 1.7105542499999995 L 2.8729641536865236 1.4466562499999995 Q 2.8770366536865235 1.4401402499999996 2.8823309036865234 1.4364749999999997 Q 2.8876251536865234 1.4328097499999997 2.8949556536865235 1.4328097499999997 L 2.9364951536865234 1.4328097499999997 Q 2.9438256536865235 1.4328097499999997 2.9487126536865236 1.4376967499999997 Q 2.953599653686523 1.4425837499999996 2.953599653686523 1.4490997499999996 Q 2.953599653686523 1.4523577499999996 2.9527851536865235 1.4548012499999996 Q 2.9519706536865233 1.4572447499999996 2.9503416536865235 1.4596882499999997 L 2.7548616536865236 1.7920042499999995 L 2.7548616536865236 1.9842262499999996 Q 2.7548616536865236 1.9923712499999997 2.749567403686523 1.9976654999999996 Q 2.7442731536865232 2.0029597499999996 2.7353136536865232 2.0029597499999996 L 2.6929596536865232 2.0029597499999996 M 3.432506166137695 2.0111047499999994 Q 3.3624591661376955 2.0111047499999994 3.3127746661376953 1.9870769999999995 Q 3.263090166137695 1.9630492499999996 3.236211666137695 1.9129574999999996 Q 3.209333166137695 1.8628657499999997 3.2060751661376954 1.7871172499999997 Q 3.2052606661376952 1.7512792499999996 3.2052606661376952 1.7182919999999995 Q 3.2052606661376952 1.6853047499999996 3.2060751661376954 1.6494667499999995 Q 3.209333166137695 1.5745327499999995 3.237433416137695 1.5244409999999995 Q 3.2655336661376952 1.4743492499999995 3.3156254161376952 1.4495069999999997 Q 3.3657171661376952 1.4246647499999996 3.432506166137695 1.4246647499999996 Q 3.498480666137695 1.4246647499999996 3.548572416137695 1.4495069999999997 Q 3.598664166137695 1.4743492499999995 3.6271716661376954 1.5244409999999995 Q 3.6556791661376953 1.5745327499999995 3.6581226661376953 1.6494667499999995 Q 3.659751666137695 1.6853047499999996 3.659751666137695 1.7182919999999995 Q 3.659751666137695 1.7512792499999996 3.6581226661376953 1.7871172499999997 Q 3.6556791661376953 1.8628657499999997 3.6283934161376954 1.9129574999999996 Q 3.601107666137695 1.9630492499999996 3.5514231661376954 1.9870769999999995 Q 3.5017386661376952 2.0111047499999994 3.432506166137695 2.0111047499999994 M 3.432506166137695 1.9418722499999996 Q 3.494408166137695 1.9418722499999996 3.533911416137695 1.9044052499999995 Q 3.5734146661376953 1.8669382499999996 3.576672666137695 1.7830447499999995 Q 3.5783016661376954 1.7463922499999995 3.5783016661376954 1.7174774999999995 Q 3.5783016661376954 1.6885627499999996 3.576672666137695 1.6527247499999995 Q 3.575043666137695 1.5965242499999996 3.555902916137695 1.5615007499999995 Q 3.536762166137695 1.5264772499999997 3.5049966661376954 1.5101872499999995 Q 3.4732311661376953 1.4938972499999996 3.432506166137695 1.4938972499999996 Q 3.391781166137695 1.4938972499999996 3.3600156661376954 1.5101872499999995 Q 3.3282501661376953 1.5264772499999997 3.3091094161376953 1.5615007499999995 Q 3.2899686661376952 1.5965242499999996 3.287525166137695 1.6527247499999995 Q 3.2867106661376955 1.6885627499999996 3.2867106661376955 1.7174774999999995 Q 3.2867106661376955 1.7463922499999995 3.287525166137695 1.7830447499999995 Q 3.2907831661376954 1.8669382499999996 3.3306936661376954 1.9044052499999995 Q 3.3706041661376953 1.9418722499999996 3.432506166137695 1.9418722499999996 M 3.987589506958008 2.0111047499999994 Q 3.915099006958008 2.0111047499999994 3.865007256958008 1.9842262499999996 Q 3.814915506958008 1.9573477499999996 3.788444256958008 1.9084777499999996 Q 3.7619730069580077 1.8596077499999997 3.758715006958008 1.7936332499999996 Q 3.757900506958008 1.7577952499999996 3.757900506958008 1.7174774999999995 Q 3.757900506958008 1.6771597499999995 3.758715006958008 1.6405072499999995 Q 3.7619730069580077 1.5745327499999995 3.788444256958008 1.5260699999999996 Q 3.814915506958008 1.4776072499999997 3.865414506958008 1.4511359999999995 Q 3.9159135069580078 1.4246647499999996 3.987589506958008 1.4246647499999996 Q 4.044604506958008 1.4246647499999996 4.086958506958008 1.4409547499999995 Q 4.129312506958008 1.4572447499999996 4.1565982569580076 1.4820869999999995 Q 4.183884006958007 1.5069292499999996 4.197323256958008 1.5338077499999996 Q 4.210762506958008 1.5606862499999996 4.211577006958008 1.5810487499999997 Q 4.212391506958008 1.5883792499999996 4.207504506958008 1.5928589999999996 Q 4.202617506958008 1.5973387499999996 4.194472506958008 1.5973387499999996 L 4.146417006958008 1.5973387499999996 Q 4.138272006958008 1.5973387499999996 4.134606756958008 1.5940807499999996 Q 4.130941506958008 1.5908227499999996 4.127683506958008 1.5826777499999996 Q 4.120353006958008 1.5615007499999995 4.103655756958008 1.5411382499999995 Q 4.086958506958008 1.5207757499999996 4.058858256958008 1.5073364999999996 Q 4.030758006958008 1.4938972499999996 3.987589506958008 1.4938972499999996 Q 3.9224295069580077 1.4938972499999996 3.882926256958008 1.5289207499999997 Q 3.843423006958008 1.5639442499999996 3.8401650069580078 1.6445797499999997 Q 3.8377215069580077 1.7170702499999995 3.8401650069580078 1.7895607499999997 Q 3.843423006958008 1.8710107499999995 3.883333506958008 1.9064414999999997 Q 3.923244006958008 1.9418722499999996 3.987589506958008 1.9418722499999996 Q 4.030758006958008 1.9418722499999996 4.064559756958008 1.9255822499999995 Q 4.098361506958008 1.9092922499999996 4.117909506958008 1.8763049999999997 Q 4.1374575069580075 1.8433177499999995 4.1374575069580075 1.7920042499999995 L 4.1374575069580075 1.7577952499999996 L 4.015282506958008 1.7577952499999996 Q 4.007137506958008 1.7577952499999996 4.001843256958008 1.7525009999999996 Q 3.996549006958008 1.7472067499999997 3.996549006958008 1.7382472499999997 L 3.996549006958008 1.7121832499999996 Q 3.996549006958008 1.7032237499999996 4.001843256958008 1.6979294999999996 Q 4.007137506958008 1.6926352499999995 4.015282506958008 1.6926352499999995 L 4.199359506958007 1.6926352499999995 Q 4.208319006958008 1.6926352499999995 4.213206006958008 1.6979294999999996 Q 4.218093006958008 1.7032237499999996 4.218093006958008 1.7121832499999996 L 4.218093006958008 1.7903752499999996 Q 4.218093006958008 1.8571642499999996 4.190807256958008 1.9068487499999995 Q 4.163521506958008 1.9565332499999997 4.111393506958008 1.9838189999999996 Q 4.059265506958008 2.0111047499999994 3.987589506958008 2.0111047499999994 M 4.541017201538087 2.0111047499999994 Q 4.470970201538086 2.0111047499999994 4.421285701538086 1.9870769999999995 Q 4.371601201538087 1.9630492499999996 4.344722701538086 1.9129574999999996 Q 4.317844201538087 1.8628657499999997 4.314586201538086 1.7871172499999997 Q 4.313771701538086 1.7512792499999996 4.313771701538086 1.7182919999999995 Q 4.313771701538086 1.6853047499999996 4.314586201538086 1.6494667499999995 Q 4.317844201538087 1.5745327499999995 4.345944451538086 1.5244409999999995 Q 4.374044701538087 1.4743492499999995 4.424136451538087 1.4495069999999997 Q 4.474228201538087 1.4246647499999996 4.541017201538087 1.4246647499999996 Q 4.606991701538086 1.4246647499999996 4.657083451538086 1.4495069999999997 Q 4.707175201538086 1.4743492499999995 4.735682701538086 1.5244409999999995 Q 4.764190201538087 1.5745327499999995 4.766633701538086 1.6494667499999995 Q 4.768262701538086 1.6853047499999996 4.768262701538086 1.7182919999999995 Q 4.768262701538086 1.7512792499999996 4.766633701538086 1.7871172499999997 Q 4.764190201538087 1.8628657499999997 4.736904451538086 1.9129574999999996 Q 4.709618701538086 1.9630492499999996 4.6599342015380865 1.9870769999999995 Q 4.610249701538086 2.0111047499999994 4.541017201538087 2.0111047499999994 M 4.541017201538087 1.9418722499999996 Q 4.602919201538087 1.9418722499999996 4.642422451538087 1.9044052499999995 Q 4.681925701538086 1.8669382499999996 4.685183701538087 1.7830447499999995 Q 4.686812701538086 1.7463922499999995 4.686812701538086 1.7174774999999995 Q 4.686812701538086 1.6885627499999996 4.685183701538087 1.6527247499999995 Q 4.683554701538086 1.5965242499999996 4.664413951538086 1.5615007499999995 Q 4.645273201538086 1.5264772499999997 4.6135077015380865 1.5101872499999995 Q 4.581742201538086 1.4938972499999996 4.541017201538087 1.4938972499999996 Q 4.500292201538087 1.4938972499999996 4.468526701538086 1.5101872499999995 Q 4.436761201538086 1.5264772499999997 4.417620451538086 1.5615007499999995 Q 4.398479701538086 1.5965242499999996 4.396036201538086 1.6527247499999995 Q 4.395221701538087 1.6885627499999996 4.395221701538087 1.7174774999999995 Q 4.395221701538087 1.7463922499999995 4.396036201538086 1.7830447499999995 Q 4.399294201538086 1.8669382499999996 4.439204701538086 1.9044052499999995 Q 4.479115201538086 1.9418722499999996 4.541017201538087 1.9418722499999996 M 4.907136542358399 2.0029597499999996 Q 4.898177042358398 2.0029597499999996 4.893290042358398 1.9976654999999996 Q 4.888403042358399 1.9923712499999997 4.888403042358399 1.9842262499999996 L 4.888403042358399 1.4523577499999996 Q 4.888403042358399 1.4433982499999995 4.893290042358398 1.4381039999999996 Q 4.898177042358398 1.4328097499999997 4.907136542358399 1.4328097499999997 L 4.944603542358399 1.4328097499999997 Q 4.954377542358398 1.4328097499999997 4.959264542358398 1.4372894999999994 Q 4.964151542358398 1.4417692499999997 4.964966042358398 1.4442127499999997 L 5.235380042358399 1.8596077499999997 L 5.235380042358399 1.4523577499999996 Q 5.235380042358399 1.4433982499999995 5.240267042358399 1.4381039999999996 Q 5.245154042358399 1.4328097499999997 5.2541135423583984 1.4328097499999997 L 5.293209542358398 1.4328097499999997 Q 5.302169042358399 1.4328097499999997 5.307463292358398 1.4381039999999996 Q 5.312757542358399 1.4433982499999995 5.312757542358399 1.4523577499999996 L 5.312757542358399 1.9834117499999997 Q 5.312757542358399 1.9915567499999995 5.307463292358398 1.9972582499999996 Q 5.302169042358399 2.0029597499999996 5.294024042358399 2.0029597499999996 L 5.254928042358398 2.0029597499999996 Q 5.245968542358399 2.0029597499999996 5.241488792358399 1.9980727499999995 Q 5.237009042358398 1.9931857499999996 5.235380042358399 1.9915567499999995 L 4.965780542358399 1.5802342499999995 L 4.965780542358399 1.9842262499999996 Q 4.965780542358399 1.9923712499999997 4.960486292358398 1.9976654999999996 Q 4.955192042358399 2.0029597499999996 4.946232542358398 2.0029597499999996 L 4.907136542358399 2.0029597499999996 M 5.638970757934571 1.6494667499999995 Q 5.621051757934571 1.6494667499999995 5.621051757934571 1.6315477499999995 L 5.621051757934571 1.4507287499999997 Q 5.621051757934571 1.4328097499999997 5.638970757934571 1.4328097499999997 L 5.656075257934571 1.4328097499999997 Q 5.666663757934571 1.4328097499999997 5.672365257934571 1.4393257499999996 Q 5.6780667579345705 1.4458417499999996 5.68132475793457 1.4507287499999997 L 5.7293802579345705 1.5281062499999996 L 5.777435757934571 1.4507287499999997 Q 5.7806937579345705 1.4458417499999996 5.78639525793457 1.4393257499999996 Q 5.792096757934571 1.4328097499999997 5.802685257934571 1.4328097499999997 L 5.81978975793457 1.4328097499999997 Q 5.83770875793457 1.4328097499999997 5.83770875793457 1.4507287499999997 L 5.83770875793457 1.6315477499999995 Q 5.83770875793457 1.6494667499999995 5.81978975793457 1.6494667499999995 L 5.80187075793457 1.6494667499999995 Q 5.78395175793457 1.6494667499999995 5.78395175793457 1.6315477499999995 L 5.78395175793457 1.5338077499999996 L 5.75544425793457 1.5810487499999997 Q 5.751371757934571 1.5875647499999996 5.7472992579345705 1.5924517499999995 Q 5.743226757934571 1.5973387499999996 5.734267257934571 1.5973387499999996 L 5.72449325793457 1.5973387499999996 Q 5.716348257934571 1.5973387499999996 5.711868507934571 1.5924517499999995 Q 5.707388757934571 1.5875647499999996 5.703316257934571 1.5810487499999997 L 5.674808757934571 1.5338077499999996 L 5.674808757934571 1.6315477499999995 Q 5.674808757934571 1.6494667499999995 5.656889757934571 1.6494667499999995 L 5.638970757934571 1.6494667499999995 M 5.50132025793457 1.6494667499999995 Q 5.48340125793457 1.6494667499999995 5.48340125793457 1.6315477499999995 L 5.48340125793457 1.4841232499999997 L 5.441047257934571 1.4841232499999997 Q 5.423128257934571 1.4841232499999997 5.423128257934571 1.4662042499999997 L 5.423128257934571 1.4507287499999997 Q 5.423128257934571 1.4328097499999997 5.441047257934571 1.4328097499999997 L 5.579512257934571 1.4328097499999997 Q 5.597431257934571 1.4328097499999997 5.597431257934571 1.4507287499999997 L 5.597431257934571 1.4662042499999997 Q 5.597431257934571 1.4841232499999997 5.579512257934571 1.4841232499999997 L 5.53715825793457 1.4841232499999997 L 5.53715825793457 1.6315477499999995 Q 5.53715825793457 1.6494667499999995 5.51923925793457 1.6494667499999995 L 5.50132025793457 1.6494667499999995" fill="#c84449" fill-rule="nonzero"></path></g><g clip-path="url(#SvgjsClipPath1020)"><g clip-path="url(#SvgjsClipPath1017f8cfe904-6a2b-478e-a4b1-6ae28612e044)"><path d=" M 1.828753914385682 -2.8563575634507323 C 1.3755808559868372 -3.726818421780501 1.5131316812647566 -4.787500881700204 2.1733458301784863 -5.513576087389581 L 2.1733458301784863 -6.843812560413799 C 0.35508306901585596 -5.7521080994847535 -0.023697407465020248 -3.2962526614421304 1.3606309867279869 -1.7125480916934874 C 1.4624430131457498 -1.9611516837909537 1.378170609044908 -1.7552324069413094 1.828753914385682 -2.8563575634507323 Z" fill="url(#gradient-bfda1ca6-241f-4c6d-b26b-e129d8792c93_0)" transform="matrix(1,0,0,1,0,0)" fill-rule="nonzero"></path></g><g clip-path="url(#SvgjsClipPath1017f8cfe904-6a2b-478e-a4b1-6ae28612e044)"><path d=" M 5.993660559008232 -2.8565288488249205 C 6.300672463704041 -2.105887824980398 6.191118338372952 -2.3738466643611877 6.461475172992385 -1.7123425492444602 C 7.848646904396922 -3.2992672840278514 7.463905696894285 -5.7540607527505045 5.649000129065746 -6.843367218440908 L 5.649000129065746 -5.513576087389581 C 6.309255074648428 -4.78759265777337 6.44683801691977 -3.726941811093148 5.993660559008232 -2.8565288488249214 Z" fill="url(#gradient-bfda1ca6-241f-4c6d-b26b-e129d8792c93_1)" transform="matrix(1,0,0,1,0,0)" fill-rule="nonzero"></path></g><g clip-path="url(#SvgjsClipPath1017f8cfe904-6a2b-478e-a4b1-6ae28612e044)"><path d=" M 4.619780572640735 -1.7001812876770632 C 4.1587870413028565 -1.5544689204803142 3.6640727740639547 -1.5544689204803124 3.2030792427260657 -1.7001812876770632 L 2.2055817376008022 -1.0131556518062208 C 3.259209731383696 -0.39705149895099723 4.5632047420102175 -0.39705149895099723 5.6168327357931105 -1.0131556518062208 C 5.193552319098016 -1.304888901124401 5.409988517922844 -1.1557678543557266 4.619780572640735 -1.7001812876770632 Z" fill="url(#gradient-bfda1ca6-241f-4c6d-b26b-e129d8792c93_2)" transform="matrix(1,0,0,1,0,0)" fill-rule="nonzero"></path></g><g clip-path="url(#SvgjsClipPath1017f8cfe904-6a2b-478e-a4b1-6ae28612e044)"><path d=" M 6.68130282222616 -0.5514387971431844 C 6.68130282222616 -0.575247464155412 3.9156949135007033 -7.3146417969836754 3.9111729796221226 -7.324439320387269 C 3.907164901866107 -7.3146417969836754 1.1491620637546314 -0.5500000000000007 1.1393302832761996 -0.5500000000000007 C 1.1491963208294678 -0.5500000000000007 1.505641184516132 -0.8025431557038072 3.9114470362208236 -2.4593865802310217 C 6.843270272058978 -0.440000532696021 6.68130282222616 -0.5612363205467785 6.68130282222616 -0.5514387971431844 Z" fill="url(#gradient-bfda1ca6-241f-4c6d-b26b-e129d8792c93_3)" transform="matrix(1,0,0,1,0,0)" fill-rule="nonzero"></path></g></g></g><defs><clipPath id="SvgjsClipPath1020"><path d=" M 0.5247241036123325 -7.324439320387268 h 6.773000523244085 v 6.774439320387268 h -6.773000523244085 Z"></path></clipPath><clipPath id="SvgjsClipPath1017f8cfe904-6a2b-478e-a4b1-6ae28612e044"><path d=" M 0.524724103612333 -7.324439320387268 L 7.297724626856418 -7.324439320387268 L 7.297724626856418 -0.5499999999999998 L 0.5247241036123337 -0.5499999999999998 Z"></path></clipPath><linearGradient id="gradient-bfda1ca6-241f-4c6d-b26b-e129d8792c93_0" x1="0" x2="1" y1="0" y2="1"><stop stop-color="#e7a93f" offset="0"></stop><stop stop-color="#d16644" offset="1"></stop></linearGradient><linearGradient id="gradient-bfda1ca6-241f-4c6d-b26b-e129d8792c93_1" x1="0" x2="1" y1="0" y2="1"><stop stop-color="#d67743" offset="0"></stop><stop stop-color="#c13448" offset="1"></stop></linearGradient><linearGradient id="gradient-bfda1ca6-241f-4c6d-b26b-e129d8792c93_2" x1="0" x2="1" y1="0" y2="1"><stop stop-color="#d16644" offset="0"></stop><stop stop-color="#c23a47" offset="1"></stop></linearGradient><linearGradient id="gradient-bfda1ca6-241f-4c6d-b26b-e129d8792c93_3" x1="0" x2="1" y1="0" y2="1"><stop stop-color="#e7a83f" offset="0"></stop><stop stop-color="#bf2f49" offset="1"></stop></linearGradient></defs></svg>