<?xml version="1.0" encoding="utf-8"?>
<svg id="master-artboard" viewBox="0 0 1500 260" version="1.1" xmlns="http://www.w3.org/2000/svg" x="0px" y="0px" style="enable-background:new 0 0 1400 260;" width="1500px" height="260px"><defs><clipPath id="clipPath22" clipPathUnits="userSpaceOnUse"><path id="path20" d="M 0,173.241 H 612 V 0 H 0 Z"/></clipPath></defs><g transform="matrix(1.0168108125061286, 0, 0, 1.0168108125061286, 0.014842147912868446, -0.31598188494526586)"><g transform="matrix(1.076923131942749, 0, 0, 1.076923131942749, -0.6337812840938568, -1.4321914911270144)"><g transform="matrix(1.715686, 0, 0, 1.715686, -61.500004, -52.580032)"><g transform="matrix(1.3333333,0,0,-1.3333333,0,230.988)" id="g10"><g transform="translate(136.341,103.1165)" id="g12"><path id="path14" style="fill:#4c9d2f;fill-opacity:1;fill-rule:nonzero;stroke:none" d="m 0,0 -24.891,4.271 9.384,-45.291 15.903,-6.443 15.012,6.411 9.406,45.322 z"/></g><g id="g16"><g clip-path="url(#clipPath22)" id="g18"><g transform="matrix(1, 0, 0, 1, 154.146194, 59.666359)" id="g24"><path id="path26" style="fill:#002d74;fill-opacity:1;fill-rule:nonzero;stroke:none" d="M 0,0 -17.381,-7.424 -35.704,0 -46.202,50.672 -17.806,45.8 10.517,50.672 Z m 14.192,54.631 -10.029,3.598 -17.669,19.312 1.84,2.075 c 0.365,0.41 0.414,1.011 0.123,1.475 l -5.302,8.461 c -0.453,0.722 -1.641,0.72 -2.094,0 l -5.301,-8.461 c -0.29,-0.464 -0.241,-1.065 0.124,-1.475 l 1.84,-2.075 -17.67,-19.312 -10.029,-3.598 c -0.527,-0.189 -0.861,-0.71 -0.813,-1.268 0.048,-0.559 0.465,-1.015 1.017,-1.111 l 0.454,-0.08 11.222,-54.166 20.741,-11.969 19.751,12.001 11.239,54.152 0.353,0.062 c 0.552,0.096 0.969,0.552 1.017,1.111 0.048,0.558 -0.286,1.079 -0.814,1.268"/></g><g transform="matrix(1, 0, 0, 1, 132.877808, 83.989357)" id="g28"><path id="path30" style="fill:#ffffff;fill-opacity:1;fill-rule:nonzero;stroke:none" d="M 0,0 3.826,18.684 7.652,0 24.7,-4.193 7.652,-8.386 3.826,-27.07 0,-8.386 -17.048,-4.193 Z"/></g><g transform="matrix(1, 0, 0, 1, 136.628296, 84.969261)" id="g32"><path id="path34" style="fill:#ffffff;fill-opacity:1;fill-rule:nonzero;stroke:none" d="M 0,0 14.424,8.74 5.411,-5.246 14.836,-19.484 0.151,-10.346 -14.274,-19.085 -5.26,-5.1 -14.685,9.138 Z"/></g><g transform="matrix(1, 0, 0, 1, 160.490799, 54.995258)" id="g36"><path id="path38" style="fill:#002d74;fill-opacity:1;fill-rule:nonzero;stroke:none" d="M 0,0 86.728,-8.925 H -15.861 Z"/></g><g transform="matrix(1, 0, 0, 1, 113.366302, 54.995258)" id="g40"><path id="path42" style="fill:#002d74;fill-opacity:1;fill-rule:nonzero;stroke:none" d="M 0,0 -86.297,-8.925 H 15.861 Z"/></g><g transform="matrix(1, 0, 0, 1, 193.963898, 108.41996)" id="g44"><path id="path46" style="fill:#002d74;fill-opacity:1;fill-rule:nonzero;stroke:none" d="M 0,0 H 13.218 V -5.508 H 9.557 v -14.396 c 0,-10.145 -5.659,-14.686 -14.027,-14.686 -8.368,0 -13.836,4.541 -13.836,14.686 v 14.396 h -3.661 V 0 h 13.218 v -5.508 h -3.661 v -14.396 c 0,-6.473 2.9,-9.179 7.94,-9.179 5.04,0 8.131,2.706 8.131,9.228 V -5.508 H 0 Z" transform="matrix(1, 0, 0, 1, 0, -9.40323482432229)"/></g><g transform="matrix(1, 0, 0, 1, 235.09080505371097, 99.01661743245262)" id="g48"><path id="path50" style="fill:#002d74;fill-opacity:1;fill-rule:nonzero;stroke:none" d="M 0,0 H 13.218 V -5.508 H 9.557 V -33.962 H 5.135 l -18.115,22.271 v -16.764 h 3.661 v -5.507 h -13.218 v 5.507 h 3.661 v 22.947 h -3.661 V 0 h 7.132 L 3.661,-22.657 V -5.508 H 0 Z"/></g><g transform="matrix(1, 0, 0, 1, 254.01370239257812, 99.01661743245262)" id="g52"><path id="path54" style="fill:#002d74;fill-opacity:1;fill-rule:nonzero;stroke:none" d="M 0,0 H 13.218 V -5.508 H 9.557 v -22.947 h 3.661 v -5.507 H 0 v 5.507 H 3.661 V -5.508 H 0 Z"/></g><g transform="matrix(1, 0, 0, 1, 289.95901489257807, 69.78911651692526)" id="g56"><path id="path58" style="fill:#002d74;fill-opacity:1;fill-rule:nonzero;stroke:none" d="m 0,0 c 6.467,0 11.507,5.266 11.507,12.174 0,6.957 -4.803,12.222 -11.507,12.222 -6.608,0 -11.506,-5.265 -11.506,-12.222 C -11.506,5.362 -6.466,0 0,0 m -0.047,29.807 c 10.364,0 17.877,-7.392 17.877,-17.536 0,-10 -7.655,-17.537 -17.877,-17.537 -10.223,0 -17.83,7.488 -17.83,17.537 0,9.806 7.798,17.536 17.83,17.536"/></g><g transform="matrix(1, 0, 0, 1, 335.2236022949219, 99.01661743245262)" id="g60"><path id="path62" style="fill:#002d74;fill-opacity:1;fill-rule:nonzero;stroke:none" d="M 0,0 H 13.218 V -5.508 H 9.557 V -33.962 H 5.135 l -18.115,22.271 v -16.764 h 3.661 v -5.507 h -13.218 v 5.507 h 3.661 v 22.947 h -3.661 V 0 h 7.132 L 3.661,-22.657 V -5.508 H 0 Z"/></g><g transform="matrix(1, 0, 0, 1, 389.71090698242193, 89.74121917805807)" id="g64"><path id="path66" style="fill:#002d74;fill-opacity:1;fill-rule:nonzero;stroke:none" d="m 0,0 v 3.768 h -10.793 v -9.517 h 8.083 v -5.314 h -8.083 V -19.18 H 0 v 3.769 h 5.04 v -9.276 h -25.39 v 5.507 h 3.662 V 3.768 H -20.35 V 9.275 H 5.04 V 0 Z"/></g><g transform="matrix(1, 0, 0, 1, 412.7236022949219, 65.05474914631982)" id="g68"><path id="path70" style="fill:#002d74;fill-opacity:1;fill-rule:nonzero;stroke:none" d="m 0,0 h -12.885 l 0.047,0.048 v 5.459 h 4.042 l 8.035,10.724 -8.32,12.223 h -3.757 v 5.508 H 0 V 28.454 H -2.092 L 2.9,20.918 8.035,28.454 H 5.801 v 5.508 H 18.638 V 28.454 H 14.739 L 6.514,16.715 14.645,5.507 h 3.993 V 0.048 L 18.686,0 H 5.801 V 5.507 H 7.56 L 2.805,12.029 -1.902,5.507 H 0 Z"/></g><g transform="matrix(1, 0, 0, 1, 446.1953125, 93.50881256184715)" id="g72"><path id="path74" style="fill:#002d74;fill-opacity:1;fill-rule:nonzero;stroke:none" d="m 0,0 v -13.285 h 3.898 c 5.516,0 7.418,2.995 7.418,6.715 C 11.316,-2.851 9.462,0 3.898,0 Z M -9.557,5.508 H 4.327 c 8.891,0 13.36,-4.977 13.36,-12.078 0,-7.102 -4.421,-12.029 -14.501,-12.029 H 0 v -4.348 h 5.658 v -5.507 H -9.557 v 5.507 h 3.661 V 0 h -3.661 z"/></g><g transform="matrix(1, 0, 0, 1, 477.8145141601563, 93.50881256184715)" id="g76"><path id="path78" style="fill:#002d74;fill-opacity:1;fill-rule:nonzero;stroke:none" d="m 0,0 v -13.285 h 4.374 c 5.516,0 7.417,2.995 7.417,6.715 C 11.791,-2.851 9.938,0 4.374,0 Z M -9.557,5.508 H 4.802 c 8.891,0 13.361,-4.977 13.361,-12.078 0,-5.266 -2.473,-9.372 -6.752,-11.063 l 3.946,-5.314 h 4.28 v -5.507 H 12.6 l -7.132,9.903 C 4.897,-18.599 4.279,-18.599 3.661,-18.599 H 0 v -4.348 h 3.613 v -5.507 h -13.17 v 5.507 h 3.661 V 0 h -3.661 z"/></g><g transform="matrix(1, 0, 0, 1, 523.2686157226562, 89.74121917805807)" id="g80"><path id="path82" style="fill:#002d74;fill-opacity:1;fill-rule:nonzero;stroke:none" d="m 0,0 v 3.768 h -10.793 v -9.517 h 8.083 v -5.314 h -8.083 V -19.18 H 0 v 3.769 h 5.04 v -9.276 h -25.39 v 5.507 h 3.662 V 3.768 H -20.35 V 9.275 H 5.04 V 0 Z"/></g><g transform="matrix(1, 0, 0, 1, 539.2432250976562, 75.68261779866357)" id="g84"><path id="path86" style="fill:#002d74;fill-opacity:1;fill-rule:nonzero;stroke:none" d="m 0,0 v -0.628 c 0,-3.864 3.424,-4.976 6.514,-4.976 3.803,0 5.515,1.981 5.515,4.155 0,2.27 -1.236,3.623 -7.274,5.893 -6.514,2.513 -8.749,5.846 -8.749,10.097 0,4.831 3.709,9.372 10.27,9.372 4.328,0 5.705,-2.512 5.849,-2.754 l -0.429,2.175 h 5.325 l 0.048,-10 h -5.325 v 1.594 c -0.237,2.85 -2.473,3.623 -5.135,3.623 -3.328,0 -4.66,-1.787 -4.66,-3.864 0,-2.368 1.807,-3.866 6.515,-5.749 7.464,-2.996 9.603,-5.943 9.603,-10.387 0,-6.039 -4.516,-9.759 -10.317,-9.759 -6.514,0 -8.13,3.382 -8.13,3.382 l 0.428,-2.802 H -5.277 L -5.325,0 Z"/></g><g transform="matrix(1, 0, 0, 1, 567.9608764648438, 75.68261779866357)" id="g88"><path id="path90" style="fill:#002d74;fill-opacity:1;fill-rule:nonzero;stroke:none" d="m 0,0 v -0.628 c 0,-3.864 3.424,-4.976 6.514,-4.976 3.803,0 5.515,1.981 5.515,4.155 0,2.27 -1.236,3.623 -7.274,5.893 -6.514,2.513 -8.749,5.846 -8.749,10.097 0,4.831 3.709,9.372 10.27,9.372 4.327,0 5.705,-2.512 5.848,-2.754 l -0.428,2.175 h 5.325 l 0.048,-10 h -5.325 v 1.594 c -0.237,2.85 -2.473,3.623 -5.135,3.623 -3.328,0 -4.66,-1.787 -4.66,-3.864 0,-2.368 1.808,-3.866 6.515,-5.749 7.465,-2.996 9.603,-5.943 9.603,-10.387 0,-6.039 -4.516,-9.759 -10.317,-9.759 -6.514,0 -8.13,3.382 -8.13,3.382 l 0.428,-2.802 H -5.277 L -5.325,0 Z"/></g><g transform="matrix(1, 0, 0, 1, 289.287811, 50.962059)" id="g92"/><g transform="matrix(1, 0, 0, 1, 297.607788, 61.005058)" id="g96"/><g transform="matrix(1, 0, 0, 1, 311.131012, 54.39806)" id="g100"/><g transform="matrix(1, 0, 0, 1, 338.233185, 62.86116)" id="g108"/><g transform="matrix(1, 0, 0, 1, 393.871307, 54.39806)" id="g124"/></g></g></g></g></g></g></svg>